<svg version="1.1" width="146" height="137" viewBox="5 3 146 137" xmlns="http://www.w3.org/2000/svg" xmlns:xlink="http://www.w3.org/1999/xlink">
  <!-- Exported by Scratch - http://scratch.mit.edu/ -->
  <g id="ID0.9326914930716157" transform="matrix(0.004631850402802229, 0.11524850130081177, -0.11524850130081177, 0.004631850402802229, 16.3, 0.3)">
    <g id="Back_Arm">
      <path id="Fill_1_" fill="#FFFFFF" d="M 135.755 55.412 C 138.295 54.038 141.102 52.769 142.195 49.899 C 142.443 49.252 142.029 48.553 141.507 48.205 C 141.010 47.872 140.520 47.680 140.032 47.611 C 139.654 47.415 139.236 47.279 138.824 47.229 C 138.340 47.170 137.845 47.302 137.359 47.540 C 137.275 47.540 137.189 47.541 137.101 47.554 C 135.656 47.771 134.283 48.168 133.042 48.849 C 134.521 47.591 135.101 45.827 134.663 44.960 C 134.032 43.712 132.520 43.307 131.351 43.689 C 118.800 47.774 126.318 67.438 119.431 70.877 C 118.437 71.374 115.062 72.876 112.917 72.727 C 112.636 73.903 112.368 75.054 112.138 76.152 C 111.667 78.396 111.263 80.550 110.849 82.666 C 117.320 85.600 125.703 79.902 126.556 72.131 C 126.640 71.369 126.970 70.816 127.455 70.389 C 127.456 70.369 127.457 70.350 127.457 70.330 C 127.492 70.321 127.524 70.314 127.560 70.306 C 130.215 68.162 137.046 69.307 135.870 62.005 C 137.687 60.779 141.312 60.835 141.816 58.074 C 141.980 57.178 141.754 55.696 140.761 55.402 C 138.669 54.781 136.529 57.173 135.017 58.617 C 134.988 58.147 134.946 57.669 134.882 57.176 C 135.085 56.780 135.297 56.387 135.542 56.008 C 135.671 55.812 135.732 55.611 135.755 55.412 Z "/>
      <path id="Outline_4_" fill="#272525" d="M 141.818 52.728 C 143.066 50.518 144.019 49.192 141.791 46.368 C 140.389 44.591 138.863 45.193 137.062 44.880 C 136.388 39.164 129.902 40.581 126.980 42.746 C 121.974 46.453 119.394 53.131 119.912 59.248 C 120.861 70.485 115.830 69.468 112.682 70.408 C 111.881 70.647 112.768 71.929 112.533 72.679 C 112.657 72.702 112.788 72.717 112.922 72.726 C 115.068 72.875 118.441 71.373 119.437 70.876 C 126.324 67.437 118.806 47.773 131.357 43.688 C 132.527 43.306 134.038 43.711 134.669 44.959 C 135.268 46.145 133.990 49.031 131.065 49.970 C 128.994 50.635 126.711 52.852 126.305 55.242 L 127.737 55.400 C 129.415 52.162 132.382 50.909 134.591 50.909 C 135.438 50.909 135.678 52.250 135.419 53.010 C 134.594 55.438 132.457 57.413 130.824 58.781 C 131.672 60.461 132.051 65.190 129.318 65.226 L 129.544 66.327 C 134.097 68.600 134.977 62.026 134.591 59.016 C 136.108 57.678 138.469 54.719 140.768 55.401 C 141.760 55.695 141.987 57.177 141.823 58.073 C 141.319 60.834 137.694 60.778 135.877 62.004 C 137.055 69.306 130.224 68.161 127.567 70.305 C 127.534 70.333 127.497 70.359 127.463 70.388 C 126.977 70.815 126.647 71.368 126.565 72.130 C 125.711 79.902 117.328 85.598 110.858 82.665 C 110.483 82.495 110.116 82.303 109.755 82.074 C 109.080 83.556 109.526 84.503 109.454 86.144 C 110.855 87.320 115.882 87.359 117.566 87.077 C 124.118 85.976 127.691 78.545 128.637 72.379 C 136.240 73.305 137.999 66.098 138.267 63.751 C 140.218 62.107 141.667 62.959 144.534 59.566 C 146.790 56.891 144.775 53.432 141.818 52.728 Z M 138.202 52.728 C 138.353 50.841 134.964 49.112 137.826 47.854 C 138.805 47.854 139.914 47.542 140.665 48.717 C 141.547 50.096 139.408 52.020 138.202 52.728 Z "/>
    </g>
    <g id="Body">
      <path id="Fill" fill="#FFFFFF" d="M 117.414 25.766 C 112.082 -2.981 69.768 2.166 63.030 25.215 C 61.225 31.387 63.951 40.850 63.694 47.225 C 63.500 52.038 57.888 64.994 45.690 54.088 C 38.533 49.569 29.409 36.276 21.974 37.081 C 19.230 40.727 17.211 45.974 16.678 50.779 C 18.065 50.295 19.574 49.906 21.224 49.582 C 32.783 47.312 35.085 63.442 45.253 60.666 C 39.741 65.552 31.662 57.263 26.648 55.400 C 20.401 53.079 9.870 56.239 8.193 63.732 C 4.728 79.221 17.866 76.863 21.625 82.147 C 28.873 80.505 32.630 83.707 37.449 85.324 C 42.560 87.039 51.122 88.959 55.903 85.479 C 55.903 85.479 54.340 88.686 53.192 89.490 C 42.037 97.276 33.022 84.631 22.050 82.854 C 22.630 84.038 22.802 85.559 22.355 87.627 C 20.810 94.783 11.367 96.731 13.994 105.234 C 14.719 107.583 16.960 111.195 19.417 111.836 C 21.882 112.481 26.373 110.658 28.947 112.266 C 30.486 108.464 36.176 104.395 42.315 103.711 C 53.969 102.415 64.794 101.813 72.822 91.999 C 71.240 100.454 61.760 105.982 52.937 106.541 C 46.375 106.957 34.736 108.084 29.752 112.965 C 30.047 113.317 30.302 113.738 30.490 114.274 C 31.881 118.227 24.047 130.610 40.403 134.667 C 40.132 125.855 44.586 118.499 51.279 113.333 C 68.334 100.168 90.852 111.253 102.575 97.688 C 109.023 90.227 109.679 79.561 111.463 70.100 C 113.807 57.655 119.689 38.045 117.414 25.766 Z "/>
      <path id="Outline" fill="#272525" d="M 113.080 72.055 C 117.055 55.775 124.954 33.117 118.755 18.180 C 112.208 2.408 84.988 -3.275 68.453 11.854 C 59.807 19.766 56.500 28.596 59.476 47.934 C 59.574 48.571 59.580 49.128 59.546 49.649 C 59.210 54.754 53.046 54.593 50.672 54.060 C 50.521 54.026 50.370 53.974 50.218 53.909 C 49.126 53.440 48.040 52.253 47.058 51.623 C 42.485 48.696 39.161 42.749 35.533 38.732 C 31.573 34.346 24.820 31.232 19.263 29.928 C 13.945 35.626 12.415 44.897 12.596 52.767 C 10.117 54.428 8.213 56.790 6.799 60.305 C 5.037 64.685 4.434 67.908 5.598 72.522 C 7.143 78.643 12.496 79.861 17.080 82.204 C 17.817 82.580 18.815 83.751 18.888 84.642 C 19.414 91.075 6.801 92.744 8.568 103.347 C 9.245 107.406 10.180 109.937 13.314 112.542 C 17.423 115.960 23.862 111.700 25.743 114.664 C 27.056 116.733 23.798 119.698 23.408 121.424 C 20.907 132.500 33.191 138.560 38.615 136.570 C 39.376 136.292 40.198 136.069 40.849 135.575 L 41.334 135.575 C 55.787 92.770 83.932 120.110 100.766 104.291 C 106.739 98.679 108.809 92.415 110.299 85.437 C 110.932 82.472 111.462 79.381 112.139 76.154 C 112.415 74.843 112.734 73.470 113.080 72.055 Z M 102.574 97.688 C 90.849 111.251 68.333 100.167 51.278 113.333 C 44.585 118.499 40.131 125.854 40.402 134.667 C 24.046 130.610 31.880 118.228 30.489 114.274 C 30.301 113.740 30.047 113.317 29.751 112.965 C 34.735 108.084 46.373 106.957 52.936 106.541 C 61.758 105.982 71.239 100.454 72.821 91.999 C 64.793 101.812 53.968 102.415 42.314 103.711 C 36.175 104.395 30.485 108.464 28.946 112.266 C 26.372 110.660 21.881 112.481 19.416 111.836 C 16.959 111.195 14.718 107.583 13.993 105.234 C 11.366 96.730 20.809 94.783 22.354 87.627 C 22.801 85.559 22.628 84.036 22.049 82.854 C 33.021 84.629 42.036 97.276 53.191 89.490 C 54.339 88.686 55.902 85.479 55.902 85.479 C 51.121 88.958 42.559 87.039 37.448 85.324 C 32.630 83.707 28.872 80.507 21.624 82.147 C 17.865 76.865 4.727 79.221 8.192 63.732 C 9.870 56.239 20.401 53.079 26.648 55.400 C 31.662 57.263 39.741 65.552 45.253 60.666 C 35.085 63.442 32.783 47.312 21.224 49.582 C 19.573 49.906 18.064 50.295 16.678 50.779 C 17.211 45.974 19.231 40.728 21.974 37.081 C 29.409 36.275 38.533 49.569 45.690 54.088 C 57.888 64.994 63.500 52.038 63.694 47.225 C 63.951 40.850 61.225 31.387 63.030 25.215 C 69.768 2.166 112.082 -2.981 117.414 25.766 C 119.689 38.045 113.807 57.655 111.462 70.098 C 109.680 79.561 109.023 90.227 102.574 97.688 Z "/>
    </g>
    <g id="Mouth">
      <path id="Inside" fill="#769CC9" d="M 89.688 57.916 C 92.494 56.233 96.104 57.737 97.975 60.746 C 104.381 59.296 107.663 68.052 104.528 72.850 C 108.024 69.858 106.086 66.240 105.585 63.732 C 104.237 56.996 109.226 49.996 105.208 46.046 C 99.459 40.398 90.240 47.385 89.688 57.916 Z "/>
      <path id="Tongue" fill="#BC0838" d="M 98.044 63.985 C 98.434 64.950 98.568 66.492 98.201 67.348 C 96.318 64.769 93.508 58.256 89.162 62.474 C 89.417 64.411 89.846 67.374 90.744 69.078 C 92.288 72.005 97.224 75.167 100.535 74.344 C 104.723 73.304 104.723 63.906 98.044 63.985 Z "/>
      <path id="Outline_1_" fill="#272525" d="M 107.391 42.824 C 104.768 40.150 100.340 40.044 96.920 40.938 C 84.036 44.307 82.348 74.449 97.447 78.825 C 105.373 81.122 110.579 75.363 108.670 67.192 C 106.693 58.721 114.273 49.845 107.391 42.824 Z M 100.535 74.344 C 97.224 75.167 92.288 72.005 90.744 69.078 C 89.846 67.374 89.417 64.411 89.162 62.474 C 93.508 58.256 96.318 64.769 98.201 67.348 C 98.568 66.492 98.433 64.950 98.044 63.985 C 104.723 63.906 104.723 73.304 100.535 74.344 Z M 105.583 63.732 C 106.084 66.240 108.023 69.858 104.527 72.850 C 107.662 68.052 104.381 59.296 97.974 60.746 C 96.103 57.737 92.492 56.233 89.687 57.916 C 90.240 47.385 99.458 40.398 105.206 46.046 C 109.223 49.996 104.236 56.996 105.583 63.732 Z "/>
    </g>
    <g id="R_Eye">
      <path id="White_1_" fill="#FFFFFF" d="M 109.430 35.042 C 111.389 35.351 115.005 33.419 113.272 31.033 C 111.232 31.262 110.046 33.187 109.430 35.042 Z "/>
      <path id="Pupil_1_" fill="#272525" d="M 113.876 31.021 C 114.249 31.021 114.586 31.179 114.831 31.434 C 115.076 31.689 115.227 32.041 115.227 32.430 C 115.227 32.819 115.076 33.171 114.831 33.426 C 114.586 33.681 114.249 33.839 113.876 33.839 C 113.503 33.839 113.166 33.681 112.921 33.426 C 112.676 33.171 112.525 32.819 112.525 32.430 C 112.525 32.041 112.676 31.689 112.921 31.434 C 113.166 31.179 113.503 31.021 113.876 31.021 Z "/>
      <path id="Outline_3_" fill="#272525" d="M 113.045 28.596 C 110.100 28.511 106.782 33.491 107.620 36.377 C 115.107 38.228 118.383 28.750 113.045 28.596 Z M 109.430 35.042 C 110.046 33.187 111.233 31.262 113.272 31.033 C 115.005 33.419 111.389 35.351 109.430 35.042 Z "/>
    </g>
    <g id="L_Eye">
      <path id="White" fill="#FFFFFF" d="M 79.450 27.260 C 81.320 33.016 88.187 34.939 93.387 34.098 C 90.702 30.502 83.997 25.863 79.450 27.260 Z "/>
      <path id="Pupil" fill="#272525" d="M 92.229 31.255 C 92.985 31.255 93.669 31.492 94.165 31.875 C 94.661 32.257 94.968 32.786 94.968 33.369 C 94.968 33.952 94.661 34.481 94.165 34.863 C 93.669 35.246 92.985 35.483 92.229 35.483 C 91.473 35.483 90.789 35.246 90.293 34.863 C 89.797 34.481 89.490 33.952 89.490 33.369 C 89.490 32.786 89.797 32.257 90.293 31.875 C 90.789 31.492 91.473 31.255 92.229 31.255 Z "/>
      <path id="Outline_2_" fill="#272525" d="M 97.150 35.435 C 96.527 32.568 89.757 26.051 87.208 24.666 C 83.730 22.779 79.169 22.387 75.684 24.431 C 77.093 32.934 86.145 40.911 94.665 37.636 C 95.521 37.307 97.419 36.671 97.150 35.435 Z M 79.450 27.260 C 83.997 25.863 90.702 30.502 93.387 34.098 C 88.188 34.939 81.320 33.016 79.450 27.260 Z "/>
    </g>
    <g id="Front_Arm">
      <path id="Fill_2_" fill="#FFFFFF" d="M 64.203 49.421 C 63.740 49.487 60.840 49.656 59.025 50.360 C 50.815 53.547 47.074 63.136 52.541 69.758 L 54.744 71.854 C 58.346 74.497 64.610 72.115 67.023 76.785 C 68.265 79.187 68.699 83.723 71.918 84.330 C 73.053 84.544 74.503 83.430 74.780 82.287 C 75.271 80.271 72.821 77.978 72.672 75.842 C 74.744 75.883 77.698 79.901 80.052 78.516 C 83.960 76.218 77.717 70.025 77.717 70.025 C 86.782 68.651 81.686 60.854 74.630 63.580 C 72.607 64.362 69.935 65.624 67.653 64.768 C 66.401 64.298 64.860 62.685 64.536 61.378 C 63.702 58.019 66.765 54.783 68.629 52.475 C 69.174 51.799 69.888 51.963 70.440 52.458 C 71.961 48.171 67.976 47.739 65.907 47.791 C 65.942 48.482 65.305 49.262 64.203 49.421 Z "/>
      <path id="Outline_5_" fill="#272525" d="M 83.141 61.693 C 79.661 58.376 71.253 62.018 69.829 61.245 C 66.332 59.343 69.454 56.782 71.030 54.980 C 71.606 54.322 71.162 53.105 70.440 52.458 C 69.888 51.963 69.175 51.799 68.629 52.475 C 66.765 54.783 63.702 58.019 64.536 61.378 C 64.860 62.685 66.401 64.298 67.653 64.768 C 69.935 65.624 72.607 64.362 74.630 63.580 C 81.686 60.854 86.782 68.651 77.717 70.025 C 77.717 70.025 83.960 76.218 80.052 78.516 C 77.698 79.901 74.744 75.883 72.672 75.842 C 72.821 77.979 75.271 80.272 74.780 82.287 C 74.503 83.430 73.053 84.544 71.918 84.330 C 68.699 83.723 68.265 79.187 67.023 76.785 C 64.610 72.115 58.346 74.496 54.744 71.854 C 54.695 71.818 54.641 71.791 54.593 71.753 C 53.801 71.129 53.121 70.460 52.541 69.758 C 47.074 63.135 50.814 53.546 59.025 50.360 C 60.840 49.656 63.740 49.487 64.203 49.421 C 65.305 49.262 65.942 48.482 65.906 47.791 C 65.871 47.117 65.196 46.527 63.678 46.682 C 57.606 47.301 42.198 52.944 48.796 68.926 C 51.068 74.432 56.599 76.350 61.827 76.787 C 67.073 77.225 65.196 84.072 69.209 86.849 C 72.669 89.244 78.543 86.838 78.397 82.130 C 82.983 81.726 87.299 76.183 83.668 71.911 C 87.382 68.596 86.535 64.925 83.141 61.693 Z "/>
    </g>
  </g>
</svg>