<svg version="1.1" width="19" height="20" xmlns="http://www.w3.org/2000/svg" xmlns:xlink="http://www.w3.org/1999/xlink">
  <!-- Exported by Scratch - http://scratch.mit.edu/ -->
  <g id="ID0.9897929397411644" transform="matrix(0.8369565010070801, 0, 0, 0.8369565010070801, 0, -0.4)">
    <path id="ID0.24373664474114776" fill="#BE2026" stroke="#BE2026" d="M 83.878 69.485 L 98.872 54.409 C 102.323 50.939 102.308 45.307 98.837 41.856 C 97.164 40.190 94.941 39.274 92.580 39.274 C 90.200 39.274 87.964 40.203 86.286 41.891 L 71.543 56.713 L 57.020 41.677 C 55.332 39.929 53.064 38.967 50.634 38.967 C 48.322 38.967 46.133 39.852 44.469 41.458 C 40.949 44.858 40.851 50.489 44.251 54.009 L 59.022 69.303 L 44.029 84.379 C 40.577 87.849 40.592 93.479 44.062 96.931 C 45.736 98.596 47.959 99.514 50.321 99.514 C 52.700 99.514 54.937 98.584 56.614 96.897 L 71.357 82.074 L 85.881 97.112 C 87.569 98.860 89.835 99.822 92.265 99.822 L 92.265 99.822 C 94.577 99.822 96.768 98.937 98.431 97.330 C 101.952 93.930 102.049 88.299 98.649 84.778 L 83.878 69.485 Z " transform="matrix(0.29781967401504517, 0, 0, 0.29781967401504517, -11.65, -10.65)"/>
    <path id="ID0.5942058763466775" fill="#DD2726" stroke="#BC192D" d="M 81.312 69.466 L 97.573 53.118 C 100.316 50.359 100.305 45.899 97.546 43.155 C 94.788 40.412 90.328 40.425 87.584 43.183 L 71.523 59.330 L 55.702 42.949 C 52.999 40.151 48.539 40.073 45.742 42.775 C 42.943 45.479 42.866 49.938 45.568 52.736 L 61.587 69.321 L 45.328 85.670 C 42.584 88.430 42.597 92.889 45.354 95.632 C 48.114 98.376 52.573 98.364 55.316 95.606 L 71.376 79.458 L 87.198 95.840 C 89.901 98.638 94.361 98.715 97.159 96.014 C 99.957 93.309 100.034 88.851 97.331 86.053 L 81.312 69.466 Z " transform="matrix(0.29781967401504517, 0, 0, 0.29781967401504517, -11.65, -10.65)"/>
  </g>
</svg>