<svg version="1.1" width="29" height="14" xmlns="http://www.w3.org/2000/svg" xmlns:xlink="http://www.w3.org/1999/xlink">
  <!-- Exported by Scratch - http://scratch.mit.edu/ -->
  <path id="ID0.9574911347590387" fill="#404040" stroke="#000000" stroke-width="3.990125" d="M 189.175 149.050 C 193.444 149.050 197.313 150.784 200.115 153.585 C 202.916 156.387 204.650 160.256 204.650 164.525 C 204.650 168.794 202.916 172.663 200.115 175.465 C 197.313 178.266 193.444 180 189.175 180 C 184.906 180 181.037 178.266 178.235 175.465 C 175.434 172.663 173.700 168.794 173.700 164.525 C 173.700 160.256 175.434 156.387 178.235 153.585 C 181.037 150.784 184.906 149.050 189.175 149.050 L 189.175 149.050 Z " transform="matrix(0.39443597197532654, 0, 0, 0.39443597197532654, -67.4, -58)"/>
  <path id="ID0.6759541407227516" fill="#404040" stroke="#000000" stroke-width="4.5886249999999995" d="M 189.400 148.500 L 247.650 148.500 L 247.650 178.450 L 189.400 178.450 L 189.400 148.500 L 189.400 148.500 Z " transform="matrix(0.3602198660373688, 0, 0, 0.39443597197532654, -61.15, -57.6)"/>
</svg>