<svg version="1.1" width="12" height="13" xmlns="http://www.w3.org/2000/svg" xmlns:xlink="http://www.w3.org/1999/xlink">
  <!-- Exported by Scratch - http://scratch.mit.edu/ -->
  <path id="ID0.8320087720640004" fill="#404040" stroke="none" d="M 213.825 159.550 C 215.487 159.550 216.993 160.225 218.084 161.316 C 219.175 162.407 219.850 163.913 219.850 165.575 C 219.850 167.237 219.175 168.743 218.084 169.834 C 216.993 170.925 215.487 171.600 213.825 171.600 C 212.163 171.600 210.657 170.925 209.566 169.834 C 208.475 168.743 207.800 167.237 207.800 165.575 C 207.800 163.913 208.475 162.407 209.566 161.316 C 210.657 160.225 212.163 159.550 213.825 159.550 L 213.825 159.550 Z " transform="matrix(0.9419087171554565, 0, 0, 0.9419087171554565, -195.5, -149.35)"/>
</svg>