<svg version="1.1" width="31" height="32" xmlns="http://www.w3.org/2000/svg" xmlns:xlink="http://www.w3.org/1999/xlink">
  <!-- Exported by Scratch - http://scratch.mit.edu/ -->
  <path id="ID0.017242261674255133" fill="#BE0A00" stroke="#BE0A00" stroke-width="2.852975" d="M 225.175 160.850 C 227.996 160.850 230.552 161.996 232.403 163.847 C 234.254 165.698 235.400 168.254 235.400 171.075 C 235.400 173.896 234.254 176.452 232.403 178.303 C 230.552 180.154 227.996 181.300 225.175 181.300 C 222.354 181.300 219.798 180.154 217.947 178.303 C 216.096 176.452 214.950 173.896 214.950 171.075 C 214.950 168.254 216.096 165.698 217.947 163.847 C 219.798 161.996 222.354 160.850 225.175 160.850 Z " transform="matrix(1, 0, 0, 1, -206, -159)"/>
  <path id="ID0.25421721767634153" fill="none" stroke="#3CF300" stroke-width="5.3966" stroke-linecap="round" d="M 224 196.800 L 225.250 196.800 " transform="matrix(1, 0, 0, 1, -221, -168)"/>
</svg>