<svg version="1.1" width="129" height="104" xmlns="http://www.w3.org/2000/svg" xmlns:xlink="http://www.w3.org/1999/xlink">
  <!-- Exported by Scratch - http://scratch.mit.edu/ -->
  <path id="ID0.8689748551696539" fill="#C2C2C2" stroke="#404040" stroke-width="1.995125" d="M 217.475 142.050 C 225.676 142.050 233.107 145.381 238.488 150.762 C 243.869 156.143 247.200 163.574 247.200 171.775 C 247.200 179.976 243.869 187.407 238.488 192.788 C 233.107 198.169 225.676 201.500 217.475 201.500 C 209.274 201.500 201.843 198.169 196.462 192.788 C 191.081 187.407 187.750 179.976 187.750 171.775 C 187.750 163.574 191.081 156.143 196.462 150.762 C 201.843 145.381 209.274 142.050 217.475 142.050 Z " transform="matrix(1.5353946685791016, 0, 0, 1.5353946685791016, -252.6, -207.65)"/>
  <path id="ID0.5738994465209544" fill="#404040" stroke="#404040" stroke-width="1.995125" d="M 183.350 161.500 L 194.450 161.500 L 194.450 179.300 L 183.350 179.300 L 183.350 161.500 Z " transform="matrix(1.5353946685791016, 0, 0, 1.5353946685791016, -243.5, -204.6)"/>
  <path id="ID0.8727173986844718" fill="none" stroke="#404040" stroke-width="1.995125" d="M 203.175 145.050 C 204.106 145.050 204.950 145.428 205.561 146.039 C 206.172 146.650 206.550 147.494 206.550 148.425 C 206.550 149.356 206.172 150.200 205.561 150.811 C 204.950 151.422 204.106 151.800 203.175 151.800 C 202.244 151.800 201.400 151.422 200.789 150.811 C 200.178 150.200 199.800 149.356 199.800 148.425 C 199.800 147.494 200.178 146.650 200.789 146.039 C 201.400 145.428 202.244 145.050 203.175 145.050 Z " transform="matrix(1.5353946685791016, 0, 0, 1.5353946685791016, -246.35, -199.4)"/>
  <path id="ID0.8727173986844718" fill="none" stroke="#404040" stroke-width="1.995125" d="M 203.175 145.050 C 204.106 145.050 204.950 145.428 205.561 146.039 C 206.172 146.650 206.550 147.494 206.550 148.425 C 206.550 149.356 206.172 150.200 205.561 150.811 C 204.950 151.422 204.106 151.800 203.175 151.800 C 202.244 151.800 201.400 151.422 200.789 150.811 C 200.178 150.200 199.800 149.356 199.800 148.425 C 199.800 147.494 200.178 146.650 200.789 146.039 C 201.400 145.428 202.244 145.050 203.175 145.050 Z " transform="matrix(1.5353946685791016, 0, 0, 1.5353946685791016, -245.85, -144)"/>
  <path id="ID0.2152986777946353" fill="none" stroke="#F2F400" stroke-width="5.37665" stroke-linecap="round" d="M 228.700 125.600 L 156.636 125.259 " transform="matrix(1, 0, 0, 1, -154, -122)"/>
</svg>