<svg version="1.1" width="95" height="103" xmlns="http://www.w3.org/2000/svg" xmlns:xlink="http://www.w3.org/1999/xlink">
  <!-- Exported by Scratch - http://scratch.mit.edu/ -->
  <path id="ID0.8689748551696539" fill="#C2C2C2" stroke="#404040" stroke-width="1.995125" d="M 217.475 142.050 C 225.676 142.050 233.107 145.381 238.488 150.762 C 243.869 156.143 247.200 163.574 247.200 171.775 C 247.200 179.976 243.869 187.407 238.488 192.788 C 233.107 198.169 225.676 201.500 217.475 201.500 C 209.274 201.500 201.843 198.169 196.462 192.788 C 191.081 187.407 187.750 179.976 187.750 171.775 C 187.750 163.574 191.081 156.143 196.462 150.762 C 201.843 145.381 209.274 142.050 217.475 142.050 Z " transform="matrix(1.5353946685791016, 0, 0, 1.5353946685791016, -286.6, -208.65)"/>
  <path id="ID0.5738994465209544" fill="#404040" stroke="#404040" stroke-width="1.995125" d="M 183.350 161.500 L 194.450 161.500 L 194.450 179.300 L 183.350 179.300 L 183.350 161.500 Z " transform="matrix(1.5353946685791016, 0, 0, 1.5353946685791016, -277.5, -205.6)"/>
  <path id="ID0.8727173986844718" fill="none" stroke="#404040" stroke-width="1.995125" d="M 203.175 145.050 C 204.106 145.050 204.950 145.428 205.561 146.039 C 206.172 146.650 206.550 147.494 206.550 148.425 C 206.550 149.356 206.172 150.200 205.561 150.811 C 204.950 151.422 204.106 151.800 203.175 151.800 C 202.244 151.800 201.400 151.422 200.789 150.811 C 200.178 150.200 199.800 149.356 199.800 148.425 C 199.800 147.494 200.178 146.650 200.789 146.039 C 201.400 145.428 202.244 145.050 203.175 145.050 Z " transform="matrix(1.5353946685791016, 0, 0, 1.5353946685791016, -280.35, -200.4)"/>
  <path id="ID0.8727173986844718" fill="none" stroke="#404040" stroke-width="1.995125" d="M 203.175 145.050 C 204.106 145.050 204.950 145.428 205.561 146.039 C 206.172 146.650 206.550 147.494 206.550 148.425 C 206.550 149.356 206.172 150.200 205.561 150.811 C 204.950 151.422 204.106 151.800 203.175 151.800 C 202.244 151.800 201.400 151.422 200.789 150.811 C 200.178 150.200 199.800 149.356 199.800 148.425 C 199.800 147.494 200.178 146.650 200.789 146.039 C 201.400 145.428 202.244 145.050 203.175 145.050 Z " transform="matrix(1.5353946685791016, 0, 0, 1.5353946685791016, -279.85, -145)"/>
  <path id="ID0.2152986777946353" fill="none" stroke="#F2F400" stroke-width="5.37665" stroke-linecap="round" d="M 228.700 125.600 L 209.054 125.507 " transform="matrix(1, 0, 0, 1, -188, -123)"/>
  <path id="ID0.9814481935463846" fill="none" stroke="#616161" stroke-width="3.511325" stroke-linecap="round" d="M 230.400 223.300 C 230.400 223.300 232.688 216.228 235.100 213.550 C 236.072 212.471 238.191 213.974 239.450 213.250 C 240.576 212.603 241.262 211.400 241.450 209.900 C 242.204 203.899 241.917 197.794 242.150 191.750 " transform="matrix(1, 0, 0, 1, -188, -123)"/>
  <path id="ID0.3966898019425571" fill="none" stroke="#616161" stroke-width="3.511325" stroke-linecap="round" d="M 241.150 205.500 C 241.150 205.500 231.648 198.797 229.350 193.750 C 228.313 191.473 232.300 189.511 232.750 187.050 C 233.234 184.403 232.749 181.598 232.050 179 C 231.493 176.929 230.049 175.198 229.050 173.300 " transform="matrix(1, 0, 0, 1, -188, -123)"/>
</svg>