<svg version="1.1" width="68" height="145" xmlns="http://www.w3.org/2000/svg" xmlns:xlink="http://www.w3.org/1999/xlink">
  <!-- Exported by Scratch - http://scratch.mit.edu/ -->
  <path id="ID0.7701372457668185" fill="none" stroke="#C2C2C2" stroke-width="7.351699999999999" stroke-linecap="round" d="M 221.650 128.300 C 227.517 127.855 225.350 135 225.350 135 C 225.350 135 227.746 127.099 227.700 127.250 Z " transform="matrix(1, 0, 0, 1, -184, -103)"/>
  <path id="ID0.3533560913056135" fill="none" stroke="#C2C2C2" stroke-width="7.351699999999999" stroke-linecap="round" d="M 201.850 122.550 C 202.911 119.655 207.966 123.874 210.900 126.950 C 212.592 128.724 213.107 133.796 213.950 133.650 C 214.793 133.504 215.560 125.089 214.950 126.250 C 213.974 128.110 211.580 135.818 210.250 140.700 C 209.444 143.659 211.204 149.625 208.550 149.750 C 204.304 149.950 196.222 141.805 196.450 141.350 C 196.678 140.895 207.413 148.282 210.550 145.750 C 213.638 143.257 210.707 135.793 208.900 131.300 C 207.948 128.933 204.334 128.675 202.850 126.600 C 201.411 124.587 199.019 119.486 200.500 119.550 Z " transform="matrix(1, 0, 0, 1, -184, -103)"/>
  <path id="ID0.46725105633959174" fill="none" stroke="#C2C2C2" stroke-width="7.351699999999999" stroke-linecap="round" d="M 221 166.900 C 221 166.900 226.016 165.161 227 166.900 C 229.450 171.228 232.362 178.963 229.350 181.650 C 226.337 184.338 213.006 175.764 214.950 177.650 C 218.161 180.766 240.768 192.687 241.150 193.100 C 241.532 193.513 226.483 186.113 219.300 182.350 C 217.066 181.180 213.861 180.632 212.900 178.300 C 211.942 175.977 211.732 169.953 214.600 170.950 C 226.071 174.936 235.444 183.490 245.850 189.750 " transform="matrix(1, 0, 0, 1, -184, -103)"/>
  <path id="ID0.30882797949016094" fill="none" stroke="#C2C2C2" stroke-width="7.351699999999999" stroke-linecap="round" d="M 196.450 214.600 C 196.450 214.600 204.682 208.279 209.200 209.200 C 217.406 210.872 228.545 221.212 231.050 221.650 C 233.166 222.020 221.605 212.942 220.650 211.200 C 220.018 210.047 226.847 212.402 227.350 214.900 C 228.427 220.245 228.538 227.227 224.650 231.050 C 221.050 234.589 214.265 234.203 209.550 232.400 C 204.819 230.591 199.000 221.749 199.150 221.300 C 199.300 220.851 206.352 227.977 210.900 228.350 C 213.352 228.551 213.448 223.842 215.600 222.650 C 217.775 221.445 223.720 219.664 223 221.650 C 221.045 227.039 214.496 232.155 210.250 237.400 " transform="matrix(1, 0, 0, 1, -184, -103)"/>
  <path id="ID0.8727173986844718" fill="none" stroke="#404040" stroke-width="1.995125" d="M 203.175 145.050 C 204.106 145.050 204.950 145.428 205.561 146.039 C 206.172 146.650 206.550 147.494 206.550 148.425 C 206.550 149.356 206.172 150.200 205.561 150.811 C 204.950 151.422 204.106 151.800 203.175 151.800 C 202.244 151.800 201.400 151.422 200.789 150.811 C 200.178 150.200 199.800 149.356 199.800 148.425 C 199.800 147.494 200.178 146.650 200.789 146.039 C 201.400 145.428 202.244 145.050 203.175 145.050 Z " transform="matrix(1.2200058698654175, -0.9322138428688049, 0.9322138428688049, 1.2200058698654175, -368.1, 40.65)"/>
  <path id="ID0.8727173986844718" fill="none" stroke="#404040" stroke-width="1.995125" d="M 203.175 145.050 C 204.106 145.050 204.950 145.428 205.561 146.039 C 206.172 146.650 206.550 147.494 206.550 148.425 C 206.550 149.356 206.172 150.200 205.561 150.811 C 204.950 151.422 204.106 151.800 203.175 151.800 C 202.244 151.800 201.400 151.422 200.789 150.811 C 200.178 150.200 199.800 149.356 199.800 148.425 C 199.800 147.494 200.178 146.650 200.789 146.039 C 201.400 145.428 202.244 145.050 203.175 145.050 Z " transform="matrix(1.3362678289413452, 0.7561911344528198, -0.7561911344528198, 1.3362678289413452, -133.85, -235.65)"/>
  <path id="ID0.9814481935463846" fill="none" stroke="#616161" stroke-width="3.511325" stroke-linecap="round" d="M 230.400 223.300 C 230.400 223.300 232.688 216.228 235.100 213.550 C 236.072 212.471 238.191 213.974 239.450 213.250 C 240.576 212.603 241.262 211.400 241.450 209.900 C 242.204 203.899 241.917 197.794 242.150 191.750 " transform="matrix(0.870309054851532, 0.4925060272216797, -0.4925060272216797, 0.870309054851532, -62, -171.8)"/>
  <path id="ID0.3966898019425571" fill="none" stroke="#616161" stroke-width="3.511325" stroke-linecap="round" d="M 241.150 205.500 C 241.150 205.500 231.648 198.797 229.350 193.750 C 228.313 191.473 232.300 189.511 232.750 187.050 C 233.234 184.403 232.749 181.598 232.050 179 C 231.493 176.929 230.049 175.198 229.050 173.300 " transform="matrix(0.9374369978904724, -0.3481549024581909, 0.3481549024581909, 0.9374369978904724, -232.8, -23)"/>
  <path id="ID0.940505723003298" fill="none" stroke="#616161" stroke-width="3.511325" stroke-linecap="round" d="M 232.050 133.650 C 232.050 133.650 231.715 139.352 233.050 141.700 C 234.276 143.857 237.758 143.963 239.100 146.050 C 239.839 147.199 237.767 148.917 238.450 150.100 C 239.680 152.231 242.105 153.433 244.150 154.800 C 245.150 155.468 246.789 155.180 247.500 156.150 C 248.231 157.148 248.469 158.779 247.850 159.850 C 247.039 161.253 245.149 161.651 243.800 162.550 " transform="matrix(0.7945877313613892, -0.6071493029594421, 0.6071493029594421, 0.7945877313613892, -245.1, 47.55)"/>
  <path id="ID0.8946827203035355" fill="none" stroke="#616161" stroke-width="3.511325" stroke-linecap="round" d="M 237.750 148.450 C 237.750 148.450 234.631 154.028 233.050 156.800 C 232.399 157.941 232.290 159.765 231.050 160.200 C 228.630 161.048 225.731 159.248 223.350 160.200 C 221.432 160.967 220.649 163.335 219.300 164.900 " transform="matrix(0.7945877313613892, -0.6071493029594421, 0.6071493029594421, 0.7945877313613892, -245.1, 47.55)"/>
  <path id="ID0.6417054357007146" fill="none" stroke="#616161" stroke-width="3.511325" stroke-linecap="round" d="M 210.900 183.700 C 210.900 183.700 214.236 180.570 216.300 180.650 C 217.662 180.703 218.650 184 218.650 184 " transform="matrix(0.870309054851532, 0.4925060272216797, -0.4925060272216797, 0.870309054851532, -81.9, -156.65)"/>
  <path id="ID0.5447572004050016" fill="none" stroke="#616161" stroke-width="3.511325" stroke-linecap="round" d="M 214.600 180 C 214.600 180 215.427 176.531 216.600 175.300 C 217.915 173.919 221.650 172.600 221.650 172.600 " transform="matrix(0.870309054851532, 0.4925060272216797, -0.4925060272216797, 0.870309054851532, -81.9, -156.65)"/>
  <path id="ID0.43370726332068443" fill="none" stroke="#616161" stroke-width="3.511325" stroke-linecap="round" d="M 201.150 149.750 C 201.150 149.750 206.248 152.413 208.200 154.450 C 209.083 155.371 208.564 157.043 209.200 158.150 C 209.951 159.458 211.234 160.384 212.250 161.500 " transform="matrix(0.7945877313613892, -0.6071493029594421, 0.6071493029594421, 0.7945877313613892, -245.1, 47.55)"/>
  <path id="ID0.43895265832543373" fill="none" stroke="#616161" stroke-width="3.511325" stroke-linecap="round" d="M 206.200 153.150 C 206.200 153.150 206.002 148.115 207.200 146.050 C 207.841 144.946 209.777 145.657 210.900 145.050 C 212.084 144.410 212.722 142.950 213.950 142.400 C 215.064 141.901 216.563 142.694 217.600 142.050 C 218.294 141.619 218.067 140.483 218.300 139.700 " transform="matrix(0.7945877313613892, -0.6071493029594421, 0.6071493029594421, 0.7945877313613892, -245.1, 47.55)"/>
  <path id="ID0.7140967603772879" fill="none" stroke="#616161" stroke-width="3.511325" stroke-linecap="round" d="M 209.900 176.300 C 209.900 176.300 215.644 175.566 217.950 176.950 C 220.061 178.217 221.650 183.350 221.650 183.350 " transform="matrix(0.9374369978904724, -0.3481549024581909, 0.3481549024581909, 0.9374369978904724, -232.8, -23)"/>
  <path id="ID0.7556479796767235" fill="none" stroke="#616161" stroke-width="3.511325" stroke-linecap="round" d="M 218.650 178 C 218.650 178 218.635 174.332 219.650 172.950 C 220.426 171.893 223.350 171.600 223.350 171.600 " transform="matrix(0.9374369978904724, -0.3481549024581909, 0.3481549024581909, 0.9374369978904724, -232.8, -23)"/>
</svg>