<svg version="1.1" width="482" height="361" viewBox="-3 -2 482 361" xmlns="http://www.w3.org/2000/svg" xmlns:xlink="http://www.w3.org/1999/xlink">
  <!-- Exported by Scratch - http://scratch.mit.edu/ -->
  <path id="ID0.43840104108676314" fill="#FFF" scratch-type="backdrop-fill" d="M 0 0 L 480 0 L 480 360 L 0 360 L 0 0 Z "/>
  <path id="ID0.7665236592292786" fill="#69A03B" stroke="#69A03B" stroke-width="4.708325" d="M 0 0.500 L 477.800 0.500 L 477.800 358.450 L 0 358.450 L 0 0.500 Z "/>
  <path id="ID0.41411139303818345" fill="#785C00" stroke="#785C00" stroke-width="2.852975" d="M 0 164.300 L 68.750 164.300 L 68.750 194.150 L 0 194.150 L 0 164.300 Z "/>
  <path id="ID0.19494889630004764" fill="#785C00" stroke="#785C00" stroke-width="2.852975" d="M 40.950 45 L 69.250 45 L 69.250 185.050 L 40.950 185.050 L 40.950 45 Z "/>
  <path id="ID0.6677683875896037" fill="#785C00" stroke="#785C00" stroke-width="2.852975" d="M 40.950 44.450 L 208.800 44.450 L 208.800 71.250 L 40.950 71.250 L 40.950 44.450 Z "/>
  <path id="ID0.42967323074117303" fill="#785C00" stroke="#785C00" stroke-width="2.852975" d="M 208.800 44.450 L 239.150 44.450 L 239.150 332.700 L 208.800 332.700 L 208.800 44.450 Z "/>
  <path id="ID0.3493586261756718" fill="#785C00" stroke="#785C00" stroke-width="2.852975" d="M 238.650 308.900 L 390.350 308.900 L 390.350 332.700 L 238.650 332.700 L 238.650 308.900 Z "/>
  <path id="ID0.7023953087627888" fill="#785C00" stroke="#785C00" stroke-width="2.852975" d="M 360.500 170.350 L 388.800 170.350 L 388.800 307.900 L 360.500 307.900 L 360.500 170.350 Z " transform="matrix(1, 0, 0, 1, 1.5, 0)"/>
  <path id="ID0.551697806455195" fill="#785C00" stroke="#785C00" stroke-width="2.852975" d="M 390.350 169.850 L 480 169.850 L 480 203.250 L 390.350 203.250 L 390.350 169.850 Z "/>
</svg>