<svg version="1.1" width="164" height="14" xmlns="http://www.w3.org/2000/svg" xmlns:xlink="http://www.w3.org/1999/xlink">
  <!-- Exported by Scratch - http://scratch.mit.edu/ -->
  <path id="ID0.24547348404303193" fill="#009933" stroke="#009933" stroke-width="2" d="M 140.500 130.500 L 160.500 130.500 L 160.500 142 L 140.500 142 L 140.500 130.500 Z " transform="matrix(1, 0, 0, 1, -91.75, -129.25)"/>
  <path id="ID0.24547348404303193" fill="#009933" stroke="#009933" stroke-width="2" d="M 140.500 130.500 L 160.500 130.500 L 160.500 142 L 140.500 142 L 140.500 130.500 Z " transform="matrix(1, 0, 0, 1, -139, -129)"/>
  <path id="ID0.24547348404303193" fill="#009933" stroke="#009933" stroke-width="2" d="M 140.500 130.500 L 160.500 130.500 L 160.500 142 L 140.500 142 L 140.500 130.500 Z " transform="matrix(1, 0, 0, 1, -68, -129.25)"/>
  <path id="ID0.24547348404303193" fill="#009933" stroke="#009933" stroke-width="2" d="M 140.500 130.500 L 160.500 130.500 L 160.500 142 L 140.500 142 L 140.500 130.500 Z " transform="matrix(1, 0, 0, 1, -115.75, -129)"/>
  <path id="ID0.24547348404303193" fill="#009933" stroke="#009933" stroke-width="2" d="M 140.500 130.500 L 160.500 130.500 L 160.500 142 L 140.500 142 L 140.500 130.500 Z " transform="matrix(1, 0, 0, 1, -44.75, -129.25)"/>
  <path id="ID0.24547348404303193" fill="#FF0000" stroke="#FF0000" stroke-width="2" d="M 140.500 130.500 L 160.500 130.500 L 160.500 142 L 140.500 142 L 140.500 130.500 Z " transform="matrix(1, 0, 0, 1, -21.5, -129.25)"/>
  <path id="ID0.24547348404303193" fill="#FF0000" stroke="#FF0000" stroke-width="2" d="M 140.500 130.500 L 160.500 130.500 L 160.500 142 L 140.500 142 L 140.500 130.500 Z " transform="matrix(1, 0, 0, 1, 1.75, -129.25)"/>
</svg>