<svg version="1.1" width="56" height="48" xmlns="http://www.w3.org/2000/svg" xmlns:xlink="http://www.w3.org/1999/xlink">
  <!-- Exported by Scratch - http://scratch.mit.edu/ -->
  <path id="ID0.7880690996535122" fill="#00CCCC" stroke="#000000" stroke-width="2" d="M 242 147 C 251.242 147 259.617 150.642 265.682 156.525 C 271.746 162.409 275.500 170.534 275.500 179.500 C 275.500 188.466 271.746 196.591 265.682 202.475 C 259.617 208.358 251.242 212 242 212 C 232.758 212 224.383 208.358 218.318 202.475 C 212.254 196.591 208.500 188.466 208.500 179.500 C 208.500 170.534 212.254 162.409 218.318 156.525 C 224.383 150.642 232.758 147 242 147 Z " transform="matrix(0.5471478700637817, 0, 0, 0.5471478700637817, -105.1, -79.65)"/>
  <path id="ID0.08029530243948102" fill="#FFD499" stroke="#000000" stroke-width="2" d="M 248.500 78 C 252.914 78 256.914 79.849 259.811 82.836 C 262.707 85.823 264.500 89.948 264.500 94.500 C 264.500 99.052 262.707 103.177 259.811 106.164 C 256.914 109.151 252.914 111 248.500 111 C 244.086 111 240.086 109.151 237.189 106.164 C 234.293 103.177 232.500 99.052 232.500 94.500 C 232.500 89.948 234.293 85.823 237.189 82.836 C 240.086 79.849 244.086 78 248.500 78 Z " transform="matrix(0.5471478700637817, 0, 0, 0.5471478700637817, -114.95, -31.75)"/>
  <path id="ID0.8728204960934818" fill="#000000" stroke="#000000" stroke-width="2" d="M 283.500 84.500 C 286.121 84.500 288.496 85.565 290.216 87.284 C 291.935 89.004 293 91.379 293 94 C 293 96.621 291.935 98.996 290.216 100.716 C 288.496 102.435 286.121 103.500 283.500 103.500 C 280.879 103.500 278.504 102.435 276.784 100.716 C 275.065 98.996 274 96.621 274 94 C 274 91.379 275.065 89.004 276.784 87.284 C 278.504 85.565 280.879 84.500 283.500 84.500 Z " transform="matrix(0.3640843331813812, -0.4084279239177704, 0.08752026408910751, 0.07801806181669235, -90.4, 128.55)"/>
  <path id="ID0.5250069531612098" fill="#00CCCC" stroke="#000000" stroke-width="2" d="M 244 221 C 245.517 221 246.892 223.605 247.888 227.814 C 248.884 232.023 249.500 237.836 249.500 244.250 C 249.500 250.664 248.884 256.477 247.888 260.686 C 246.892 264.895 245.517 267.500 244 267.500 C 242.483 267.500 241.108 264.895 240.112 260.686 C 239.116 256.477 238.500 250.664 238.500 244.250 C 238.500 237.836 239.116 232.023 240.112 227.814 C 241.108 223.605 242.483 221 244 221 Z " transform="matrix(-0.49730148911476135, 0.11290087550878525, -0.043833330273628235, -0.19307540357112885, 160.75, 61.4)"/>
  <path id="ID0.7839268567040563" fill="#00CCCC" stroke="#000000" stroke-width="2" d="M 206.250 217.500 C 209.768 217.500 212.955 218.088 215.263 219.039 C 217.571 219.989 219 221.302 219 222.750 C 219 224.198 217.571 225.511 215.263 226.461 C 212.955 227.412 209.768 228 206.250 228 C 202.732 228 199.545 227.412 197.237 226.461 C 194.929 225.511 193.500 224.198 193.500 222.750 C 193.500 221.302 194.929 219.989 197.237 219.039 C 199.545 218.088 202.732 217.500 206.250 217.500 Z " transform="matrix(0.4612191319465637, 0.29435980319976807, -0.29435980319976807, 0.4612191319465637, -20.9, -135.25)"/>
  <path id="ID0.7839268567040563" fill="#00CCCC" stroke="#000000" stroke-width="2" d="M 206.250 217.500 C 209.768 217.500 212.955 218.088 215.263 219.039 C 217.571 219.989 219 221.302 219 222.750 C 219 224.198 217.571 225.511 215.263 226.461 C 212.955 227.412 209.768 228 206.250 228 C 202.732 228 199.545 227.412 197.237 226.461 C 194.929 225.511 193.500 224.198 193.500 222.750 C 193.500 221.302 194.929 219.989 197.237 219.039 C 199.545 218.088 202.732 217.500 206.250 217.500 Z " transform="matrix(-0.48508599400520325, 0.25310543179512024, -0.25310543179512024, -0.48508599400520325, 204.2, 82.65)"/>
  <path id="ID0.8728204960934818" fill="#000000" stroke="#000000" stroke-width="2" d="M 283.500 84.500 C 286.121 84.500 288.496 85.565 290.216 87.284 C 291.935 89.004 293 91.379 293 94 C 293 96.621 291.935 98.996 290.216 100.716 C 288.496 102.435 286.121 103.500 283.500 103.500 C 280.879 103.500 278.504 102.435 276.784 100.716 C 275.065 98.996 274 96.621 274 94 C 274 91.379 275.065 89.004 276.784 87.284 C 278.504 85.565 280.879 84.500 283.500 84.500 Z " transform="matrix(0.4452325105667114, 0.3180232346057892, -0.06814783066511154, 0.09540696442127228, -98.65, -78.45)"/>
</svg>